<svg width="144" height="144" viewBox="0 0 144 144" fill="none" xmlns="http://www.w3.org/2000/svg">
<rect width="144" height="144" rx="10" fill="white"/>
<path d="M25.4937 116.628C25.2803 116.808 24.9586 116.625 25.0044 116.35L31.6555 76.4291C31.6999 76.1628 32.0459 76.086 32.1987 76.3086L40.1986 87.9583C40.2921 88.0943 40.4779 88.1294 40.6145 88.0366L121.231 33.2922L45.0186 71.5604C44.8897 71.6252 44.7329 71.5889 44.6454 71.4742L34.2035 57.7784C34.1809 57.7488 34.164 57.7152 34.1537 57.6794L25.878 28.8834C25.7887 28.5725 26.1868 28.3598 26.3956 28.607L48.2966 54.5419C48.3755 54.6353 48.5032 54.6715 48.6193 54.6334L129.749 28.0164C130.062 27.9136 130.288 28.3183 130.036 28.5309L25.4937 116.628Z" fill="#359300"/>
</svg>
