<svg width="144" height="144" viewBox="0 0 144 144" fill="none" xmlns="http://www.w3.org/2000/svg">
<path d="M0.493647 131.983C0.280304 132.163 -0.0414403 131.979 0.00441278 131.704L9.14961 76.8168C9.19398 76.5505 9.54002 76.4737 9.69284 76.6963L20.7933 92.8616C20.8868 92.9977 21.0726 93.0327 21.2092 92.9399L131.02 18.3713L27.212 70.4969C27.083 70.5617 26.9262 70.5255 26.8388 70.4107L12.5599 51.6827C12.5373 51.6531 12.5205 51.6195 12.5102 51.5837L1.10161 11.8843C1.01226 11.5734 1.41044 11.3608 1.61915 11.6079L31.8005 47.3485C31.8794 47.442 32.0071 47.4782 32.1232 47.44L143.142 11.0164C143.456 10.9136 143.681 11.3183 143.429 11.5309L0.493647 131.983Z" fill="#359300"/>
</svg>
